<!-- Generated by IcoMoon.io -->
<svg version="1.1" xmlns="http://www.w3.org/2000/svg" width="14" height="14" viewBox="0 0 16 16">
<title>copy</title>
<path fill="#5bc0be" d="M11.198 0.333c0 0 0 0 0 0 0.334 0 0.636 0.139 0.851 0.363l0 0 2.838 2.961c0.203 0.212 0.328 0.499 0.328 0.816 0 0 0 0 0 0v-0 7.308c0 0.651-0.528 1.179-1.179 1.179v0h-8.463c-0.651 0-1.179-0.528-1.179-1.179v0-10.269c0-0.651 0.528-1.179 1.179-1.179v0h5.626zM10.732 1.512l-5.16 0.001v10.269h8.464v-7.193h-2.713c-0 0-0.001 0-0.001 0-0.288 0-0.528-0.207-0.58-0.48l-0.001-0.004-0.009-0.106v-2.486zM13.016 3.409l-1.104-1.152v1.152h1.104z"></path>
<path fill="#fff" d="M1.964 3.039h5.626c0 0 0 0 0 0 0.334 0 0.636 0.139 0.851 0.363l0 0 2.838 2.961c0.203 0.212 0.328 0.499 0.328 0.816 0 0 0 0 0 0v-0 7.308c0 0.651-0.528 1.179-1.179 1.179v0h-8.464c-0.651 0-1.179-0.528-1.179-1.179v0-10.269c0-0.651 0.528-1.179 1.179-1.179v0z"></path>
<path fill="#5bc0be" d="M7.59 3.039c0 0 0 0 0 0 0.334 0 0.636 0.139 0.851 0.363l0 0 2.838 2.961c0.203 0.212 0.328 0.499 0.328 0.816 0 0 0 0 0 0v-0 7.308c0 0.651-0.528 1.179-1.179 1.179v0h-8.464c-0.651 0-1.179-0.528-1.179-1.179v0-10.269c0-0.651 0.528-1.179 1.179-1.179v0h5.626zM7.124 4.219h-5.16v10.269h8.464v-7.193h-2.713c-0 0-0.001 0-0.001 0-0.288 0-0.528-0.207-0.58-0.48l-0.001-0.004-0.009-0.106v-2.486zM9.408 6.115l-1.104-1.152v1.154h1.104z"></path>
</svg>
