<svg xmlns="http://www.w3.org/2000/svg" width="16" height="16" viewBox="0 0 16 16">
    <g fill="#5BC0BE" fill-rule="nonzero">
        <path d="M11.974 1.903a.498.498 0 0 0-.706 0 .501.501 0 0 0-.001.707l2.123 2.123c.195.195.51.196.706 0a.501.501 0 0 0 .001-.707l-2.123-2.123zm-1.06 1.06a.498.498 0 0 0-.707.001.501.501 0 0 0 0 .707l2.122 2.123a.501.501 0 0 0 .707-.707l-2.123-2.124z"/>
        <path d="M5.2 7.264c-.269.27-.531.97-.88 2.153a53.464 53.464 0 0 0-.609 2.269.5.5 0 0 0 .603.603 30.181 30.181 0 0 0 .598-.15 53.464 53.464 0 0 0 1.671-.458c1.184-.35 1.884-.612 2.153-.881l6.418-6.418A2.5 2.5 0 0 0 11.618.846L5.2 7.264zm2.828 2.829c-.089.09-.787.35-1.728.629l-.318.092c-.428.122-1.07.274-1.07.274s.152-.642.274-1.07l.092-.318c.279-.941.54-1.639.63-1.728l6.417-6.419a1.5 1.5 0 1 1 2.122 2.122l-6.419 6.418z"/>
    </g>
</svg>
