<svg xmlns="http://www.w3.org/2000/svg" width="17.624" height="14.51" viewBox="0 0 17.624 14.51">
    <path id="Trazado_1" fill="currentColor" d="M15.81 0A1.81 1.81 0 0 0 14 1.81v.12c-2.8 1.26-3.37 4.93-3.48 6.44H9.31V3.54A1.8 1.8 0 0 0 8.81 0a1.8 1.8 0 0 0-.5 3.54v4.83H7.13c-.12-1.51-.68-5.21-3.51-6.45v-.11A1.82 1.82 0 0 0 1.81 0a1.81 1.81 0 1 0 1.47 2.86C5.5 3.86 6 7.02 6.12 8.37H6a2 2 0 0 0-2 2v2.13a2 2 0 0 0 2 2h5.63a2 2 0 0 0 2-2v-2.13a2 2 0 0 0-2-2h-.09c.11-1.35.62-4.45 2.81-5.5a1.79 1.79 0 0 0 1.46.74 1.81 1.81 0 1 0 0-3.62zm-14 2.61a.815.815 0 1 1 .01 0zM8 1.81a.82.82 0 1 1 .84.8h-.03a.81.81 0 0 1-.81-.8zm3.63 8.56v2.13H6v-2.13zm4.18-7.76a.815.815 0 1 1 .01 0z" data-name="Trazado 1" transform="translate(.004 .01)"/>
</svg>
