<svg id="Capa_1" data-name="Capa 1" xmlns="http://www.w3.org/2000/svg"  width="25" height="25"  viewBox="0 0 26.3 24.97">
<g fill="none" fill-rule="evenodd" stroke="currentColor">
    <path d="M40,20.43a11,11,0,0,0-8.32-8,2.64,2.64,0,0,0-5.16,0,10.94,10.94,0,0,0-8.3,8A2.46,2.46,0,0,0,16,23a2.45,2.45,0,0,0,2.27,2.6h.08a11,11,0,0,0,8.2,7.62,2.64,2.64,0,0,0,5.16,0,11,11,0,0,0,8.21-7.62A2.49,2.49,0,0,0,42,23,2.51,2.51,0,0,0,40,20.43ZM27.57,12.21a1.75,1.75,0,0,1,3,0,1,1,0,0,1,.09.39,1.08,1.08,0,0,1-.2.6,1.72,1.72,0,0,1-1.41.66,1.7,1.7,0,0,1-1.4-.66,1.08,1.08,0,0,1-.2-.6A1,1,0,0,1,27.57,12.21Zm-9.34,12.4-.15,0A1.5,1.5,0,0,1,17,23,1.55,1.55,0,0,1,18,21.43a1.33,1.33,0,0,1,.21,0,1.13,1.13,0,0,1,.75.32A1.79,1.79,0,0,1,19.5,23,1.81,1.81,0,0,1,19,24.24,1.1,1.1,0,0,1,18.23,24.61Zm12.38,8.8a1.75,1.75,0,0,1-3,0,1,1,0,0,1-.08-.39,1.08,1.08,0,0,1,.2-.6,1.71,1.71,0,0,1,1.4-.67,1.73,1.73,0,0,1,1.41.67,1.08,1.08,0,0,1,.2.6A1,1,0,0,1,30.61,33.41Zm.92-1.18a2.74,2.74,0,0,0-4.87,0,10,10,0,0,1-7.39-6.92A2.67,2.67,0,0,0,20.5,23a2.64,2.64,0,0,0-1.33-2.36,10,10,0,0,1,7.49-7.26,2.75,2.75,0,0,0,4.87,0A10,10,0,0,1,39,20.56,2.59,2.59,0,0,0,37.45,23a2.64,2.64,0,0,0,1.44,2.42A10,10,0,0,1,31.53,32.23Zm8.59-7.7a1.1,1.1,0,0,1-.4.08,1,1,0,0,1-.6-.2,1.7,1.7,0,0,1-.67-1.4,1.68,1.68,0,0,1,.73-1.45,1.06,1.06,0,0,1,.54-.16,1,1,0,0,1,.46.12,1.77,1.77,0,0,1-.06,3Z" transform="translate(-15.96 -10.33)"/>
    <rect xmlns="http://www.w3.org/2000/svg" width="2" height="9" x="12" y="8.5" stroke-width="0.5" rx="0" fill="currentColor"/>
    <rect xmlns="http://www.w3.org/2000/svg" width="9" height="2" x="8.5" y="12" stroke-width="0.25" rx="0" fill="currentColor"/>
</g>
</svg>