<svg xmlns="http://www.w3.org/2000/svg" width="50" height="60.605" viewBox="0 0 50 60.605">
    <defs>
        <style>
            .cls-1{fill:#ddd}.cls-3{fill:#c7c5c5}
        </style>
    </defs>
    <g id="man" transform="translate(-86 -40.21)">
        <path id="Trazado_21" d="M98.192 325.476A12.091 12.091 0 0 0 86.1 337.229h49.971a12.11 12.11 0 0 0-12.092-11.753 6.744 6.744 0 0 1-5.649-3.06 7.669 7.669 0 0 1-1.074-4.751l-.029-.059a3.162 3.162 0 0 0 .324-.147c-.1.044-.221.1-.324.147a15.825 15.825 0 0 1-12.739-.206v.015a4.236 4.236 0 0 0 .456.191l-.029.059a7.677 7.677 0 0 1-1.074 4.751 6.763 6.763 0 0 1-5.649 3.06z" class="cls-1" transform="translate(-.085 -236.415)"/>
        <path id="Trazado_22" fill="#9e9e9e" d="M118.43 351.5a11.129 11.129 0 0 1-14.49 0 6.724 6.724 0 0 1-5.649 3.06A12.091 12.091 0 0 0 86.2 366.313h49.971a12.11 12.11 0 0 0-12.092-11.753 6.725 6.725 0 0 1-5.649-3.06z" transform="translate(-.171 -265.498)"/>
        <path id="Trazado_23" d="M178.671 56.964V56.3a16.071 16.071 0 1 0-32.142 0v2.4a6.524 6.524 0 0 0-.029.765c0 .588.015 1.206.015 1.868s-.015 1.28-.015 1.868c0 .25.015.515.029.765v2.4a16.071 16.071 0 1 0 32.142 0v-9.4z" class="cls-1" transform="translate(-51.6)"/>
        <path id="Trazado_24" d="M225.595 321.521a16.059 16.059 0 0 1-12.695 0 10.029 10.029 0 0 0 .177-2.663l.029-.059a16.079 16.079 0 0 0 12.283 0l.029.059a9.49 9.49 0 0 0 .177 2.663z" class="cls-3" transform="translate(-108.233 -237.609)"/>
        <path id="Trazado_25" d="M352.286 164.809c.015-.059.015-.118.029-.162a5.1 5.1 0 0 0-.706-4.06c-1.28-1.471-3.31.044-3.854 2.883-.044.221-.074.412-.118.588-.015.059-.029.118-.044.191-.029.147-.059.294-.088.471s-.059.324-.088.456a.861.861 0 0 0-.029.191c-.029.177-.074.382-.118.6-.544 2.854.75 5.207 2.442 4.5a4.388 4.388 0 0 0 2.1-3.339c.015-.059.015-.1.029-.162.044-.221.1-.559.206-1.089.136-.509.195-.847.239-1.068z" class="cls-1" transform="translate(-222.729 -102.182)"/>
        <path id="Trazado_26" d="M128.736 164.809c-.015-.059-.015-.118-.029-.162a5.1 5.1 0 0 1 .706-4.06c1.28-1.471 3.31.044 3.854 2.883.044.221.074.412.118.588.015.059.029.118.044.191.029.147.059.294.088.471s.059.324.088.456a.86.86 0 0 1 .029.191c.029.177.074.382.118.6.544 2.854-.75 5.207-2.442 4.5a4.389 4.389 0 0 1-2.1-3.339c-.015-.059-.015-.1-.029-.162-.044-.221-.1-.559-.206-1.089-.136-.509-.195-.847-.239-1.068z" class="cls-1" transform="translate(-36.323 -102.182)"/>
        <path id="Trazado_27" d="M158.972 157.6a2.567 2.567 0 0 1-2.339 4.545 16.048 16.048 0 0 1-10.091-14.916c0-2.971-.029-5.06-.044-6.884a7.932 7.932 0 0 1 1.294-4.413 1.953 1.953 0 0 1 3.575 1.162c.015 1.824.044 3.913.044 6.884a15.921 15.921 0 0 0 7.561 13.622z" class="cls-3" transform="translate(-51.598 -80.899)"/>
        <path id="Trazado_28" fill="#898888" d="M105.285 352.6a11.354 11.354 0 0 1-1.545-1.1 6.724 6.724 0 0 1-5.649 3.06A12.091 12.091 0 0 0 86 366.313h5.428a12.25 12.25 0 0 1 11.283-7.532 6.225 6.225 0 0 0 1.927-.294 3.248 3.248 0 0 0 .647-5.887z" transform="translate(0 -265.498)"/>
    </g>
</svg>
