<svg xmlns="http://www.w3.org/2000/svg" width="50" height="50" viewBox="0 0 50 50">
    <defs>
        <clipPath id="clip-path">
            <circle id="Elipse_13" cx="25" cy="25" r="25" fill="none" stroke="#707070"/>
        </clipPath>
        <style>
            .cls-3{fill:#ddd}.cls-5{fill:#c7c5c5}
        </style>
    </defs>
    <g id="Enmascarar_grupo_1" clip-path="url(#clip-path)">
        <g id="man" transform="translate(7.465 8.803)">
            <path id="Trazado_21" d="M94.365 322.92a8.264 8.264 0 0 0-8.265 8.034h34.155a8.277 8.277 0 0 0-8.265-8.034 4.61 4.61 0 0 1-3.861-2.091 5.242 5.242 0 0 1-.734-3.248l-.02-.04a2.161 2.161 0 0 0 .221-.1c-.07.03-.151.07-.221.1a10.816 10.816 0 0 1-8.707-.141v.01a2.891 2.891 0 0 0 .312.131l-.02.04a5.247 5.247 0 0 1-.734 3.248 4.623 4.623 0 0 1-3.861 2.091z" class="cls-3" transform="translate(-86.09 -289.53)"/>
            <path id="Trazado_22" fill="#9e9e9e" d="M108.23 351.5a7.607 7.607 0 0 1-9.9 0 4.6 4.6 0 0 1-3.861 2.091 8.264 8.264 0 0 0-8.265 8.034h34.155a8.277 8.277 0 0 0-8.265-8.034 4.6 4.6 0 0 1-3.864-2.091z" transform="translate(-86.18 -320.201)"/>
            <path id="Trazado_23" d="M168.489 51.661v-.452a10.985 10.985 0 1 0-21.969 0v1.639a4.458 4.458 0 0 0-.02.523c0 .4.01.824.01 1.277s-.01.875-.01 1.277c0 .171.01.352.02.523v1.639a10.985 10.985 0 1 0 21.969 0v-6.426z" class="cls-3" transform="translate(-140.417 -40.21)"/>
            <path id="Trazado_24" d="M221.577 320.66a10.976 10.976 0 0 1-8.677 0 6.854 6.854 0 0 0 .121-1.82l.02-.04a10.99 10.99 0 0 0 8.4 0l.02.04a6.485 6.485 0 0 0 .116 1.82z" class="cls-5" transform="translate(-200.141 -290.789)"/>
            <path id="Trazado_25" d="M350.658 163.293c.01-.04.01-.08.02-.111a3.486 3.486 0 0 0-.483-2.775c-.875-1.005-2.262.03-2.634 1.971-.03.151-.05.282-.08.4-.01.04-.02.08-.03.131-.02.1-.04.2-.06.322s-.04.221-.06.312a.586.586 0 0 0-.02.131c-.02.121-.05.261-.08.412-.372 1.951.513 3.559 1.669 3.077a3 3 0 0 0 1.438-2.282c.01-.04.01-.07.02-.111.03-.151.07-.382.141-.744.089-.351.129-.583.159-.733z" class="cls-3" transform="translate(-320.887 -147.97)"/>
            <path id="Trazado_26" d="M128.689 163.293c-.01-.04-.01-.08-.02-.111a3.486 3.486 0 0 1 .483-2.775c.875-1.005 2.262.03 2.634 1.971.03.151.05.282.08.4.01.04.02.08.03.131.02.1.04.2.06.322s.04.221.06.312a.588.588 0 0 1 .02.131c.02.121.05.261.08.412.372 1.951-.513 3.559-1.669 3.077a3 3 0 0 1-1.438-2.282c-.01-.04-.01-.07-.02-.111-.03-.151-.07-.382-.141-.744-.088-.351-.129-.583-.159-.733z" class="cls-3" transform="translate(-124.305 -147.97)"/>
            <path id="Trazado_27" d="M155.024 150.469a1.754 1.754 0 0 1-1.6 3.107 10.969 10.969 0 0 1-6.9-10.2c0-2.031-.02-3.459-.03-4.706a5.421 5.421 0 0 1 .885-3.016 1.335 1.335 0 0 1 2.443.794c.01 1.247.03 2.675.03 4.706a10.882 10.882 0 0 0 5.172 9.315z" class="cls-5" transform="translate(-140.415 -125.525)"/>
            <path id="Trazado_28" fill="#898888" d="M99.182 352.254a7.761 7.761 0 0 1-1.056-.754 4.6 4.6 0 0 1-3.861 2.091A8.264 8.264 0 0 0 86 361.625h3.71a8.373 8.373 0 0 1 7.712-5.148 4.255 4.255 0 0 0 1.317-.2 2.22 2.22 0 0 0 .443-4.023z" transform="translate(-86 -320.201)"/>
        </g>
    </g>
</svg>
