<svg xmlns="http://www.w3.org/2000/svg" width="24" height="23.9" viewBox="0 0 14 13.996">
    <defs>
        <style>
            .cls-1{fill:currentColor}
        </style>
    </defs>
    <g id="llave-inglesa_1_" transform="translate(0 -.077)">
        <g id="Grupo_2" transform="translate(0 .077)">
            <g id="Grupo_1">
                <path id="Trazado_1" d="M13.339 10.223a2.285 2.285 0 0 0-1.618-.659L6.209 4.052A3.149 3.149 0 0 0 5.39 1 3.223 3.223 0 0 0 1.846.326l2.02 2.02L3.6 3.677l-1.331.267-2.021-2.02a3.243 3.243 0 0 0 .667 3.545 3.156 3.156 0 0 0 3.054.819L9.48 11.8a2.259 2.259 0 1 0 3.858-1.576zm-.32 2.877a1.81 1.81 0 0 1-2.558 0 1.905 1.905 0 0 1-.518-1.477L4.1 5.775A2.713 2.713 0 0 1 .476 2.793l1.643 1.642 1.863-.372.372-1.863L2.712.558a2.694 2.694 0 0 1 2.356.758 2.726 2.726 0 0 1 .626 2.863l5.845 5.845a1.876 1.876 0 0 1 1.477.518 1.807 1.807 0 0 1 .003 2.558z" class="cls-1" transform="translate(0 -.077)"/>
            </g>
        </g>
        <g id="Grupo_4" transform="translate(10.61 10.691)">
            <g id="Grupo_3">
                <path id="Trazado_2" d="M386.933 385.55a1.13 1.13 0 1 0 0 1.6 1.131 1.131 0 0 0 0-1.6zm-.32 1.279a.694.694 0 0 1-.959 0 .679.679 0 0 1 0-.959.693.693 0 0 1 .959 0 .679.679 0 0 1 0 .958z" class="cls-1" transform="translate(-385.004 -385.219)"/>
            </g>
        </g>
    </g>
</svg>
