<svg xmlns="http://www.w3.org/2000/svg" width="16" height="19" viewBox="0 0 16 19">
    <path fill="#D5DEE2" fill-rule="nonzero" d="M14.228 4.1a1.029 1.029 0 0 1 1.019 1.174l-1.764 12.343a1.029 1.029 0 0 1-1.018.883H3.964c-.512 0-.946-.376-1.019-.883L1.182 5.274A1.029 1.029 0 0 1 2.2 4.1h12.028zM4.058 5.128H2.2l1.764 12.343h1.202L4.058 5.128zm10.17 0H12.37l-1.108 12.343h1.203L14.228 5.13zm-2.891 0H8.863v12.343h1.366l1.108-12.343zm-3.502 0H5.091l1.108 12.343h1.636V5.128zm-1.922-3.6a.514.514 0 0 1 0-1.028h4.873a.514.514 0 0 1 0 1.029h4.628a.514.514 0 1 1 0 1.028h-14.4a.514.514 0 0 1 0-1.028z"/>
</svg>
